<svg xmlns="http://www.w3.org/2000/svg" viewBox="0 0 1600 900" fill="none">
  <rect width="1600" height="900" fill="#38115E"/>
  <path d="M0 704H1600" stroke="#A77BE4" stroke-width="4"/>
  <path d="M105 690H1240" stroke="#F6B84A" stroke-width="12" stroke-linecap="round" stroke-dasharray="18 34"/>
  <path d="M105 690H1240" stroke="#F6B84A" stroke-width="2" stroke-linecap="round" stroke-dasharray="18 34"/>
  <rect x="1028" y="142" width="402" height="472" rx="18" fill="#F8F4FF"/>
  <rect x="1068" y="186" width="322" height="74" rx="8" fill="#DCCBFF"/>
  <rect x="1068" y="284" width="322" height="74" rx="8" fill="#F5B74C"/>
  <rect x="1068" y="382" width="322" height="74" rx="8" fill="#DCCBFF"/>
  <rect x="1068" y="480" width="322" height="74" rx="8" fill="#BCEAD4"/>
  <path d="M1070 224H1207" stroke="#38115E" stroke-width="8" stroke-linecap="round"/>
  <path d="M1070 322H1314" stroke="#38115E" stroke-width="8" stroke-linecap="round"/>
  <path d="M1070 420H1253" stroke="#38115E" stroke-width="8" stroke-linecap="round"/>
  <path d="M1070 518H1340" stroke="#38115E" stroke-width="8" stroke-linecap="round"/>
  <path d="M1429 178V578" stroke="#B191DF" stroke-width="12" stroke-linecap="round"/>
  <path d="M1228 640C1228 678 1197 709 1159 709C1121 709 1090 678 1090 640C1090 602 1121 571 1159 571C1197 571 1228 602 1228 640Z" fill="#F8F4FF" stroke="#F8F4FF" stroke-width="12"/>
  <path d="M530 648C530 710 480 760 418 760C356 760 306 710 306 648C306 586 356 536 418 536C480 536 530 586 530 648Z" fill="#F8F4FF" stroke="#F8F4FF" stroke-width="12"/>
  <path d="M808 648C808 710 758 760 696 760C634 760 584 710 584 648C584 586 634 536 696 536C758 536 808 586 808 648Z" fill="#F8F4FF" stroke="#F8F4FF" stroke-width="12"/>
  <path d="M776 531C747 475 691 442 626 442H442C377 442 321 475 292 531L257 597C243 624 263 656 293 656H775C805 656 825 624 811 597L776 531Z" fill="#E9DDFF" stroke="#F8F4FF" stroke-width="12" stroke-linejoin="round"/>
  <rect x="414" y="342" width="244" height="128" rx="22" fill="#F8F4FF" stroke="#F8F4FF" stroke-width="12"/>
  <rect x="455" y="282" width="162" height="92" rx="18" fill="#BCEAD4" stroke="#F8F4FF" stroke-width="12"/>
  <path d="M475 328H597" stroke="#38115E" stroke-width="12" stroke-linecap="round"/>
  <path d="M526 280V214" stroke="#F8F4FF" stroke-width="12" stroke-linecap="round"/>
  <circle cx="526" cy="185" r="28" fill="#F6B84A" stroke="#F8F4FF" stroke-width="10"/>
  <path d="M290 591H777" stroke="#38115E" stroke-width="8" stroke-linecap="round"/>
  <path d="M351 648H485" stroke="#38115E" stroke-width="8" stroke-linecap="round"/>
  <path d="M629 648H763" stroke="#38115E" stroke-width="8" stroke-linecap="round"/>
  <path d="M824 296C907 296 925 376 1004 376" stroke="#F6B84A" stroke-width="12" stroke-linecap="round" stroke-dasharray="2 26"/>
  <path d="M1006 376L965 353" stroke="#F6B84A" stroke-width="12" stroke-linecap="round"/>
  <path d="M1006 376L966 400" stroke="#F6B84A" stroke-width="12" stroke-linecap="round"/>
  <circle cx="835" cy="292" r="52" fill="#F6B84A"/>
  <path d="M814 292H856" stroke="#38115E" stroke-width="10" stroke-linecap="round"/>
  <path d="M835 271V313" stroke="#38115E" stroke-width="10" stroke-linecap="round"/>
  <path d="M164 238C164 187 205 146 256 146H514C565 146 606 187 606 238V264H164V238Z" fill="#6B39BC"/>
  <path d="M191 264V405" stroke="#A77BE4" stroke-width="16"/>
  <path d="M579 264V405" stroke="#A77BE4" stroke-width="16"/>
  <path d="M213 348H557" stroke="#A77BE4" stroke-width="8"/>
  <path d="M213 406H557" stroke="#A77BE4" stroke-width="8"/>
  <circle cx="698" cy="186" r="24" fill="#F6B84A"/>
  <circle cx="766" cy="124" r="14" fill="#BCEAD4"/>
  <circle cx="840" cy="181" r="18" fill="#E9DDFF"/>
</svg>
