<svg xmlns="http://www.w3.org/2000/svg" viewBox="0 0 1040 900" fill="none">
  <rect width="1040" height="900" fill="#F7F4FB"/>
  <path d="M254 250C305 163 398 112 498 112C598 112 690 163 741 250" stroke="#7944D7" stroke-width="14" stroke-linecap="round" stroke-dasharray="3 30"/>
  <path d="M789 306C839 394 839 506 789 594" stroke="#7944D7" stroke-width="14" stroke-linecap="round" stroke-dasharray="3 30"/>
  <path d="M741 650C690 737 598 788 498 788C398 788 305 737 254 650" stroke="#7944D7" stroke-width="14" stroke-linecap="round" stroke-dasharray="3 30"/>
  <path d="M205 594C155 506 155 394 205 306" stroke="#7944D7" stroke-width="14" stroke-linecap="round" stroke-dasharray="3 30"/>
  <path d="M737 252L774 282" stroke="#7944D7" stroke-width="14" stroke-linecap="round"/>
  <path d="M737 252L723 298" stroke="#7944D7" stroke-width="14" stroke-linecap="round"/>
  <path d="M790 590L765 632" stroke="#7944D7" stroke-width="14" stroke-linecap="round"/>
  <path d="M790 590L744 600" stroke="#7944D7" stroke-width="14" stroke-linecap="round"/>
  <path d="M257 647L220 617" stroke="#7944D7" stroke-width="14" stroke-linecap="round"/>
  <path d="M257 647L271 601" stroke="#7944D7" stroke-width="14" stroke-linecap="round"/>
  <path d="M203 309L228 267" stroke="#7944D7" stroke-width="14" stroke-linecap="round"/>
  <path d="M203 309L249 299" stroke="#7944D7" stroke-width="14" stroke-linecap="round"/>
  <rect x="380" y="126" width="236" height="170" rx="26" fill="#DCCBFF" stroke="#38115E" stroke-width="10"/>
  <path d="M426 178H570" stroke="#38115E" stroke-width="10" stroke-linecap="round"/>
  <path d="M426 218H524" stroke="#38115E" stroke-width="10" stroke-linecap="round"/>
  <path d="M426 258H550" stroke="#38115E" stroke-width="10" stroke-linecap="round"/>
  <circle cx="766" cy="432" r="120" fill="#BCEAD4" stroke="#38115E" stroke-width="10"/>
  <path d="M713 423L745 454L817 380" stroke="#38115E" stroke-width="14" stroke-linecap="round" stroke-linejoin="round"/>
  <path d="M698 512H834" stroke="#38115E" stroke-width="10" stroke-linecap="round"/>
  <rect x="380" y="604" width="236" height="170" rx="26" fill="#FFD3E8" stroke="#38115E" stroke-width="10"/>
  <path d="M447 655L421 706" stroke="#38115E" stroke-width="16" stroke-linecap="round"/>
  <path d="M421 655L447 706" stroke="#38115E" stroke-width="16" stroke-linecap="round"/>
  <path d="M492 640V726" stroke="#38115E" stroke-width="12" stroke-linecap="round"/>
  <path d="M542 655L568 706" stroke="#38115E" stroke-width="16" stroke-linecap="round"/>
  <path d="M568 655L542 706" stroke="#38115E" stroke-width="16" stroke-linecap="round"/>
  <circle cx="230" cy="432" r="120" fill="#F6B84A" stroke="#38115E" stroke-width="10"/>
  <circle cx="230" cy="432" r="58" fill="#F7F4FB" stroke="#38115E" stroke-width="10"/>
  <circle cx="230" cy="432" r="18" fill="#7944D7"/>
  <path d="M170 512H290" stroke="#38115E" stroke-width="10" stroke-linecap="round"/>
  <circle cx="498" cy="449" r="118" fill="#38115E"/>
  <path d="M438 460H558" stroke="#F7F4FB" stroke-width="14" stroke-linecap="round"/>
  <path d="M452 407L493 448L548 392" stroke="#F6B84A" stroke-width="14" stroke-linecap="round" stroke-linejoin="round"/>
  <circle cx="140" cy="130" r="18" fill="#F6B84A"/>
  <circle cx="895" cy="750" r="18" fill="#7944D7"/>
</svg>
