<svg xmlns="http://www.w3.org/2000/svg" viewBox="0 0 1600 760" fill="none">
  <rect width="1600" height="760" fill="#F7F4FB"/>
  <rect x="64" y="72" width="454" height="580" rx="18" fill="#E8DBFF"/>
  <rect x="573" y="72" width="454" height="580" rx="18" fill="#BCEAD4"/>
  <rect x="1082" y="72" width="454" height="580" rx="18" fill="#FFD3E8"/>
  <path d="M112 537H470" stroke="#38115E" stroke-width="10" stroke-linecap="round"/>
  <path d="M133 260H449V512H133V260Z" fill="#F7F4FB" stroke="#38115E" stroke-width="10" stroke-linejoin="round"/>
  <path d="M133 342H449" stroke="#38115E" stroke-width="10"/>
  <path d="M133 424H449" stroke="#38115E" stroke-width="10"/>
  <rect x="166" y="283" width="78" height="36" rx="5" fill="#F6B84A"/>
  <rect x="272" y="283" width="104" height="36" rx="5" fill="#BCEAD4"/>
  <rect x="166" y="365" width="132" height="36" rx="5" fill="#D29BFF"/>
  <rect x="330" y="365" width="80" height="36" rx="5" fill="#F6B84A"/>
  <rect x="166" y="447" width="92" height="36" rx="5" fill="#BCEAD4"/>
  <rect x="284" y="447" width="126" height="36" rx="5" fill="#D29BFF"/>
  <circle cx="362" cy="554" r="48" fill="#F7F4FB" stroke="#38115E" stroke-width="10"/>
  <circle cx="256" cy="554" r="48" fill="#F7F4FB" stroke="#38115E" stroke-width="10"/>
  <path d="M309 486C285 447 239 447 215 486L191 526H423L399 486C375 447 333 447 309 486Z" fill="#7944D7" stroke="#38115E" stroke-width="10" stroke-linejoin="round"/>
  <rect x="253" y="416" width="112" height="80" rx="14" fill="#F7F4FB" stroke="#38115E" stroke-width="10"/>
  <circle cx="309" cy="444" r="12" fill="#F6B84A"/>
  <path d="M619 530H980" stroke="#38115E" stroke-width="10" stroke-linecap="round"/>
  <path d="M647 214V530" stroke="#38115E" stroke-width="12"/>
  <path d="M734 214V530" stroke="#38115E" stroke-width="12"/>
  <path d="M821 214V530" stroke="#38115E" stroke-width="12"/>
  <path d="M908 214V530" stroke="#38115E" stroke-width="12"/>
  <path d="M647 232H957" stroke="#38115E" stroke-width="12"/>
  <path d="M647 321H957" stroke="#38115E" stroke-width="12"/>
  <path d="M647 410H957" stroke="#38115E" stroke-width="12"/>
  <rect x="672" y="246" width="40" height="54" rx="4" fill="#FFD3E8"/>
  <rect x="761" y="246" width="36" height="54" rx="4" fill="#F6B84A"/>
  <rect x="848" y="246" width="42" height="54" rx="4" fill="#D29BFF"/>
  <rect x="672" y="335" width="40" height="54" rx="4" fill="#F6B84A"/>
  <rect x="761" y="335" width="36" height="54" rx="4" fill="#FFD3E8"/>
  <rect x="848" y="335" width="42" height="54" rx="4" fill="#F7F4FB"/>
  <rect x="672" y="424" width="40" height="54" rx="4" fill="#D29BFF"/>
  <rect x="761" y="424" width="36" height="54" rx="4" fill="#F7F4FB"/>
  <rect x="848" y="424" width="42" height="54" rx="4" fill="#F6B84A"/>
  <path d="M1132 532H1490" stroke="#38115E" stroke-width="10" stroke-linecap="round"/>
  <path d="M1140 407C1190 333 1244 303 1305 303C1367 303 1427 347 1488 432" stroke="#7944D7" stroke-width="14" stroke-linecap="round" stroke-dasharray="3 30"/>
  <path d="M1164 441L1210 396" stroke="#38115E" stroke-width="10" stroke-linecap="round"/>
  <path d="M1210 396L1256 441" stroke="#38115E" stroke-width="10" stroke-linecap="round"/>
  <path d="M1282 361L1328 316" stroke="#38115E" stroke-width="10" stroke-linecap="round"/>
  <path d="M1328 316L1374 361" stroke="#38115E" stroke-width="10" stroke-linecap="round"/>
  <path d="M1402 445L1448 400" stroke="#38115E" stroke-width="10" stroke-linecap="round"/>
  <path d="M1448 400L1494 445" stroke="#38115E" stroke-width="10" stroke-linecap="round"/>
  <circle cx="1306" cy="534" r="43" fill="#F7F4FB" stroke="#38115E" stroke-width="10"/>
  <circle cx="1210" cy="534" r="43" fill="#F7F4FB" stroke="#38115E" stroke-width="10"/>
  <path d="M1258 472C1235 435 1198 435 1175 472L1154 510H1362L1340 472C1317 435 1281 435 1258 472Z" fill="#F6B84A" stroke="#38115E" stroke-width="10" stroke-linejoin="round"/>
  <rect x="1212" y="407" width="96" height="76" rx="14" fill="#F7F4FB" stroke="#38115E" stroke-width="10"/>
  <path d="M1240 445H1280" stroke="#38115E" stroke-width="10" stroke-linecap="round"/>
  <circle cx="263" cy="154" r="20" fill="#F6B84A"/>
  <circle cx="718" cy="154" r="20" fill="#7944D7"/>
  <circle cx="1226" cy="154" r="20" fill="#F6B84A"/>
</svg>
